<svg id="Capa_1" enable-background="new 0 0 512 512" height="512" viewBox="0 0 512 512" width="512" xmlns="http://www.w3.org/2000/svg"><g><path d="m0 98.377 256 9 256-9v-18.581l-256-9-256 9z" fill="#495160"/><path d="m15.484 418.546h481.032c8.551 0 15.484-5.903 15.484-24.484v-295.685h-512v295.685c0 18.58 6.932 24.484 15.484 24.484z" fill="#9dc6fb"/><path d="m496.516 409.546h-481.032c-8.552 0-15.484-6.933-15.484-15.484v18.581c0 8.552 6.932 15.484 15.484 15.484h32.048l109.352-9.581 109.759 9.581h229.873c8.551 0 15.484-6.932 15.484-15.484v-18.581c0 8.551-6.932 15.484-15.484 15.484z" fill="#80b4fb"/><path d="m496.516 21.187h-481.032c-8.552 0-15.484 6.932-15.484 15.484v43.125h512v-43.125c0-8.552-6.932-15.484-15.484-15.484z" fill="#565e74"/><path d="m357.558 388.109 29.55 78.503c1.28 3.401 5.646 4.343 8.215 1.774l8.668-8.668 29.631 29.631c1.953 1.953 5.118 1.953 7.071 0l24.545-24.545c1.953-1.953 1.953-5.118 0-7.071l-29.631-29.631 8.668-8.668c2.569-2.569 1.627-6.935-1.774-8.215l-78.503-29.551c-4.022-1.514-7.954 2.418-6.44 6.441z" fill="#f95750"/><path d="m449.302 189.728c-7.795-29.906-33.962-52.393-65.724-54.685-2.896-.209-5.363 2.091-5.363 4.995v8.928l-9 21.38 9 19.382 36.639 9z" fill="#f95750"/><path d="m378.214 189.728-9 9 9 9.581 32.139 9 27.204-9h8.928c2.902 0 5.204-2.465 4.995-5.359-.328-4.533-1.069-8.952-2.182-13.221h-71.084z" fill="#e84642"/><path d="m378.214 258.071c26.283 0 56.359-23.539 56.359-49.762h-56.359v-59.343c-29.613 0-54.154 21.693-58.614 50.053.001 33.002 29.001 59.052 58.614 59.052z" fill="#ffdd91"/><path d="m378.214 249.071c-29.613 0-54.154-21.692-58.614-50.052-.476 3.027-.729 6.129-.729 9.29 0 32.774 26.569 59.343 59.342 59.343 32.774 0 59.343-26.569 59.343-59.343h-2.984c-7.799 23.67-30.076 40.762-56.358 40.762z" fill="#f9cd80"/><g><path d="m246.057 233.186c13.015-31.493 3.789-67.026-15.281-81.041-15.94-11.715-34.514-8.352-34.514-8.352s-13.978-14.671-39.184-14.671c-34.424 0-104.33 17.453-91.028 105.189z" fill="#af665a"/><path d="m78.115 267.382 10.141-11.351 9-13.217-9-9.564c-3.06-1.503-6.501-2.351-10.141-2.351-9.413 0-17.502 5.65-21.075 13.742 0 16.16 11.661 22.741 21.075 22.741z" fill="#ebbaa1"/><path d="m57.04 244.64c-1.255 2.843-1.957 5.984-1.957 9.291 0 12.72 10.312 23.032 23.032 23.032 3.64 0 7.08-.847 10.141-2.351l9-8.542-9-10.038c-3.06 1.503-6.501 2.351-10.141 2.351-9.414-.001-17.503-5.652-21.075-13.743z" fill="#e8a990"/><path d="m236.041 267.382-10.141-11.351-9-13.217 9-9.564c3.06-1.503 6.501-2.351 10.141-2.351 9.414 0 17.503 5.65 21.075 13.742-.001 16.16-11.662 22.741-21.075 22.741z" fill="#ebbaa1"/><path d="m257.115 244.64c1.255 2.843 1.957 5.984 1.957 9.291 0 12.72-10.312 23.032-23.032 23.032-3.64 0-7.08-.847-10.141-2.351l-9-8.542 9-10.038c3.06 1.503 6.501 2.351 10.141 2.351 9.414-.001 17.503-5.652 21.075-13.743z" fill="#e8a990"/><path d="m157.077 333.911c38.009 0 68.822-27.841 68.822-77.822v-22.84c-17.524-7.882-36.292-30.998-43.423-40.388-1.662-2.188-4.766-2.627-6.97-.987-12.581 9.367-52.625 37.337-87.252 41.375v22.84c.001 52.585 30.814 77.822 68.823 77.822z" fill="#fdd4bb"/><path d="m259.854 409.546c-25.295-58.658-72.288-73.164-72.288-73.164h-.019c-9.186 4.545-19.526 7.11-30.468 7.11-10.943 0-21.282-2.565-30.468-7.11h-.019s-46.993 14.506-72.288 73.164l102.582 9z" fill="#eef2f5"/><path d="m54.302 409.546c-2.484 5.761-4.763 11.94-6.764 18.581h84.599l24.747-9.581 25.134 9.581h84.599c-2.001-6.641-4.279-12.82-6.763-18.581z" fill="#deeaf3"/><path d="m126.604 336.379-.014.003 15.244 38.634 16.423 9 14.065-9 15.229-38.637z" fill="#f68acc"/><path d="m178.626 409.546-6.305-34.53h-30.487l-6.305 34.53 21.355 9z" fill="#ffa6d4"/><path d="m157.078 324.911c-38.009 0-68.822-30.813-68.822-68.822v18.581c0 38.009 30.813 68.822 68.822 68.822 38.009 0 68.822-30.813 68.822-68.822v-18.581c0 38.01-30.813 68.822-68.822 68.822z" fill="#f7c4a8"/><path d="m135.529 409.546-3.392 18.58h49.881l-3.392-18.58z" fill="#f690d2"/></g><g><path d="m33.509 58.653c0 7.163 5.827 12.99 12.99 12.99s12.99-5.827 12.99-12.99-5.827-12.99-12.99-12.99-12.99 5.828-12.99 12.99z" fill="#f95750"/><path d="m72.317 58.653c0 7.163 5.827 12.99 12.99 12.99s12.99-5.827 12.99-12.99-5.827-12.99-12.99-12.99-12.99 5.828-12.99 12.99z" fill="#ffdd91"/><path d="m111.125 58.653c0 7.163 5.827 12.99 12.99 12.99s12.99-5.827 12.99-12.99-5.828-12.99-12.99-12.99c-7.163 0-12.99 5.828-12.99 12.99z" fill="#b1e6a0"/><g fill="#565e74"><path d="m442.35 306.07c0-4.284-3.473-7.757-7.757-7.757h-112.279c-4.285 0-7.757 3.473-7.757 7.757s3.473 7.757 7.757 7.757h112.279c4.284.001 7.757-3.472 7.757-7.757z"/><path d="m349.951 333.43c-4.285 0-7.757 3.473-7.757 7.757s3.473 7.757 7.757 7.757h65.736c4.285 0 7.757-3.473 7.757-7.757s-3.473-7.757-7.757-7.757z"/><path d="m187.431 268.748c4.284 0 7.757-3.473 7.757-7.757v-11.169c0-4.284-3.473-7.757-7.757-7.757s-7.757 3.473-7.757 7.757v11.169c0 4.284 3.473 7.757 7.757 7.757z"/><path d="m134.093 260.991v-11.169c0-4.284-3.473-7.757-7.757-7.757s-7.757 3.473-7.757 7.757v11.169c0 4.284 3.473 7.757 7.757 7.757s7.757-3.473 7.757-7.757z"/></g><path d="m181.904 297.671c1.631-3.962-.258-8.495-4.219-10.126-3.962-1.631-8.495.258-10.126 4.22-.019.047-2.302 4.678-10.675 4.678s-10.655-4.631-10.675-4.678c-1.631-3.961-6.164-5.85-10.126-4.22-3.961 1.631-5.851 6.164-4.219 10.126 2.184 5.306 9.913 14.285 25.02 14.285 15.108 0 22.836-8.979 25.02-14.285z" fill="#f95750"/></g></g></svg>